<svg width="113" height="113" viewBox="0 0 113 113" fill="none" xmlns="http://www.w3.org/2000/svg">
<ellipse cx="55.5" cy="55" rx="47.5" ry="48" fill="#FFB000"/>
<g clip-path="url(#clip0_1898_456)">
<path d="M89.3743 94.6506C91.5395 92.4572 92.8779 89.4308 92.8779 86.0884C92.8779 79.3917 87.5055 73.9634 80.8779 73.9634C74.2503 73.9634 68.8779 79.3917 68.8779 86.0884C68.8779 92.785 74.2503 98.2134 80.8779 98.2134C84.1975 98.2134 87.2019 96.8513 89.3743 94.6506ZM89.3743 94.6506L96.8779 102.255" stroke="black" stroke-width="4.7" stroke-linecap="round" stroke-linejoin="round"/>
<path d="M36 23.0835H24V35.2085" stroke="black" stroke-width="3.5" stroke-linecap="round" stroke-linejoin="round"/>
<path d="M24.3901 43.3901V83.6096" stroke="black" stroke-width="3.5" stroke-linecap="round" stroke-linejoin="round"/>
<path d="M52 23.0835H60" stroke="black" stroke-width="3.5" stroke-linecap="round" stroke-linejoin="round"/>
<path d="M51.9995 103.917L74.7316 103.72" stroke="black" stroke-width="3.5" stroke-linecap="round" stroke-linejoin="round"/>
<path d="M88 42.7988V67.5419" stroke="black" stroke-width="3.5" stroke-linecap="round" stroke-linejoin="round"/>
<path d="M76 23.0835H88V35.2085" stroke="black" stroke-width="3.5" stroke-linecap="round" stroke-linejoin="round"/>
<path d="M36 103.917H24V91.7915" stroke="black" stroke-width="3.5" stroke-linecap="round" stroke-linejoin="round"/>
<g clip-path="url(#clip1_1898_456)">
<path d="M66.3657 64.0614C65.1893 62.9467 63.7852 62.0611 62.2357 61.4565C60.6861 60.8519 59.0221 60.5405 57.3413 60.5405C55.6604 60.5405 53.9965 60.8519 52.4469 61.4565C50.8973 62.0611 49.4932 62.9467 48.3169 64.0614" stroke="black" stroke-width="3" stroke-linecap="round" stroke-linejoin="round"/>
<path d="M44.7075 48.8117L50.1222 43.7843L44.7075 38.7568" stroke="black" stroke-width="3" stroke-linecap="round" stroke-linejoin="round"/>
<path d="M69.9757 48.8117L64.561 43.7843L69.9757 38.7568" stroke="black" stroke-width="3" stroke-linecap="round" stroke-linejoin="round"/>
</g>
</g>
<defs>
<clipPath id="clip0_1898_456">
<rect width="96" height="97" fill="white" transform="translate(8 15)"/>
</clipPath>
<clipPath id="clip1_1898_456">
<rect width="86.6341" height="80.439" fill="white" transform="translate(14.0244 10.2681)"/>
</clipPath>
</defs>
</svg>
