<svg width="107" height="61" viewBox="0 0 107 61" fill="none" xmlns="http://www.w3.org/2000/svg">
<g clip-path="url(#clip0_1898_521)">
<path d="M35.6305 17.5756C35.6305 19.3893 34.1557 20.8593 32.3362 20.8593C30.5167 20.8593 29.042 19.3893 29.042 17.5756C29.042 15.762 30.5167 14.292 32.3362 14.292C34.1557 14.3111 35.6305 15.7811 35.6305 17.5756Z" fill="#00AEAA"/>
<path d="M63.5738 17.5756C63.5738 19.3893 62.0991 20.8593 60.2796 20.8593C58.4601 20.8593 56.9854 19.3893 56.9854 17.5756C56.9854 15.762 58.4601 14.292 60.2796 14.292C62.0991 14.3111 63.5738 15.7811 63.5738 17.5756Z" fill="#FFB600"/>
<path d="M35.7454 41.0575H25.9967C20.251 41.0575 15.482 36.4757 15.4245 30.7484C15.3671 25.3457 19.4657 20.8593 24.7326 20.2866C25.3838 20.2102 25.8626 19.6566 25.8626 19.0075V15.8575C25.8626 15.0939 25.2115 14.5021 24.4454 14.5784C16.1715 15.2848 9.6596 22.253 9.67875 30.6911C9.69791 39.6066 17.0716 46.7657 26.0159 46.7657H35.7454C36.454 46.7657 37.0477 46.193 37.0477 45.4675V42.3366C37.0286 41.6493 36.454 41.0575 35.7454 41.0575Z" fill="black"/>
<path d="M81.156 15.2466C72.25 15.2466 64.9912 22.482 64.9912 31.3593C64.9912 40.2366 72.25 47.472 81.156 47.472C90.0619 47.472 97.3207 40.2366 97.3207 31.3593C97.3207 22.4629 90.081 15.2466 81.156 15.2466ZM81.156 41.7639C75.4102 41.7639 70.7178 37.1057 70.7178 31.3593C70.7178 25.632 75.391 20.9548 81.156 20.9548C86.9017 20.9548 91.5941 25.6129 91.5941 31.3593C91.5941 37.0866 86.9209 41.7639 81.156 41.7639Z" fill="black"/>
<path d="M63.8036 41.0575H53.9401C48.1943 41.0575 43.4253 36.4757 43.3679 30.7484C43.3104 25.3457 47.4091 20.8593 52.676 20.2866C53.3272 20.2102 53.806 19.6566 53.806 19.0075V15.8575C53.806 15.0939 53.1548 14.5021 52.3887 14.5784C44.1148 15.2848 37.603 22.253 37.6221 30.6911C37.6413 39.6066 45.015 46.7657 53.9592 46.7657H63.8036C64.5123 46.7657 65.106 46.193 65.106 45.4675V42.3366C65.0869 41.6493 64.5123 41.0575 63.8036 41.0575Z" fill="black"/>
</g>
<defs>
<clipPath id="clip0_1898_521">
<rect width="107" height="61" fill="white"/>
</clipPath>
</defs>
</svg>
